<svg width="768" height="768" viewBox="0 0 768 768" fill="none" xmlns="http://www.w3.org/2000/svg">
<path d="M511.763 64C528.912 64 545.408 68.5744 559.763 76.8613L500.718 179.129C491.34 173.886 480.636 171 469.521 171H299.342C276.499 171 255.392 183.186 243.972 202.968L159.193 349.81C153.191 360.207 150.022 371.996 150.001 384H32C32 365.914 36.7615 348.147 45.8047 332.483L173.1 112C190.248 82.2976 221.94 64 256.238 64H511.763Z" fill="url(#paint0_linear_2001_2)"/>
<path d="M150 384C150.045 395.956 153.214 407.953 159.193 418.311L243.973 565.152C255.393 584.934 276.5 597.12 299.343 597.12H469.522C480.658 597.12 491.38 594.223 500.769 588.962L559.76 691.139C545.408 699.427 528.912 704 511.763 704H256.238C221.94 704 190.248 685.702 173.1 656L45.8047 435.517C36.8261 419.965 32.0675 401.952 32 384H150Z" fill="url(#paint1_linear_2001_2)"/>
<path d="M559.763 76.8595C574.115 85.1465 586.326 97.1467 594.899 111.998L722.195 332.48C731.238 348.144 736 365.91 736 383.997C736 402.083 731.238 419.853 722.195 435.514L594.899 655.997C586.326 670.848 574.115 682.848 559.76 691.136L500.222 588.012C509.71 582.496 517.783 574.541 523.459 564.708L608.237 417.865C614.26 407.435 617.432 395.6 617.432 383.555C617.432 371.509 614.26 359.677 608.237 349.244L523.459 202.402C517.859 192.701 509.927 184.828 500.605 179.321L559.763 76.8595Z" fill="url(#paint2_linear_2001_2)"/>
<path d="M294.156 539C287.776 539 282.633 536.917 278.726 532.75C274.82 528.583 272.867 523.44 272.867 517.32V261.07C272.867 254.951 274.82 249.807 278.726 245.641C282.633 241.474 287.776 239.391 294.156 239.391H359.391C395.849 239.391 425.862 245.25 449.43 256.969C472.997 268.557 490.51 285.094 501.969 306.578C513.557 328.062 519.351 353.583 519.351 383.141C519.351 415.172 512.776 442.841 499.625 466.148C486.474 489.456 467.659 507.424 443.18 520.055C418.831 532.685 389.729 539 355.875 539H294.156ZM362.125 483.922C393.766 483.922 416.617 475.458 430.68 458.531C444.742 441.474 451.773 416.344 451.773 383.141C451.773 354.625 444.482 332.75 429.898 317.516C415.445 302.281 393.831 294.664 365.055 294.664C360.497 294.794 355.875 294.859 351.187 294.859C346.5 294.859 341.877 294.924 337.32 295.055V483.531L362.125 483.922Z" fill="url(#paint3_radial_2001_2)"/>
<defs>
<linearGradient id="paint0_linear_2001_2" x1="32" y1="64" x2="315.74" y2="531.958" gradientUnits="userSpaceOnUse">
<stop stop-color="#3BD5FF"/>
<stop offset="1" stop-color="#0FAFFF"/>
</linearGradient>
<linearGradient id="paint1_linear_2001_2" x1="32" y1="384" x2="315.74" y2="851.958" gradientUnits="userSpaceOnUse">
<stop stop-color="#0078D4"/>
<stop offset="1" stop-color="#004695"/>
</linearGradient>
<linearGradient id="paint2_linear_2001_2" x1="384" y1="76.8595" x2="913.974" y2="380.55" gradientUnits="userSpaceOnUse">
<stop stop-color="#0FAFFF"/>
<stop offset="1" stop-color="#0078D4"/>
</linearGradient>
<radialGradient id="paint3_radial_2001_2" cx="0" cy="0" r="1" gradientUnits="userSpaceOnUse" gradientTransform="translate(384 396.5) rotate(94.3205) scale(477.858 415.529)">
<stop stop-color="#004695"/>
<stop offset="0.540522" stop-color="#0078D4"/>
</radialGradient>
</defs>
</svg>
